<svg id="a86d838c-3c6e-47ba-ada5-8d340477568e" data-name="Layer 1" xmlns="http://www.w3.org/2000/svg" xmlns:xlink="http://www.w3.org/1999/xlink" width="230" height="230" viewBox="0 0 230 230">
  <defs>
    <linearGradient id="ade93078-e57f-4621-b18c-45353e57fad4" x1="5" y1="115" x2="225" y2="115" gradientTransform="translate(0 230) rotate(-90)" gradientUnits="userSpaceOnUse">
      <stop offset="0" stop-color="#7a2491"/>
      <stop offset="1" stop-color="#fba828"/>
    </linearGradient>
  </defs>
  <g>
    <circle cx="115" cy="115" r="110" style="fill: url(#ade93078-e57f-4621-b18c-45353e57fad4)"/>
    <g>
      <path d="M45.1,90.2v50H95.2v-50Zm3.6,42.9,10.7-14.3,3.6,3.6,10.7-14.3,17.9,25Z" style="fill: #fff"/>
      <path d="M194.4,72.8H35.6a9,9,0,0,0-9,9v66.4a9,9,0,0,0,9,9H194.4a9,9,0,0,0,9-9V81.8A9,9,0,0,0,194.4,72.8Zm-92.1,67.4a7.1,7.1,0,0,1-7.1,7.2H45.1a7.1,7.1,0,0,1-7.1-7.2v-50a7.1,7.1,0,0,1,7.1-7.1H95.2a7.1,7.1,0,0,1,7.1,7.1Zm39.6,7.6H118.1a3.1,3.1,0,0,1-3-3,3,3,0,0,1,3-3h23.8a3,3,0,0,1,3,3A3.1,3.1,0,0,1,141.9,147.8Zm23.7-17.1H118.1a3,3,0,0,1,0-6h47.5a3,3,0,0,1,0,6Zm0-10.3H118.1a3,3,0,0,1,0-6h47.5a3,3,0,0,1,0,6Zm0-10.3H118.1a3,3,0,0,1,0-6h47.5a3,3,0,0,1,0,6Zm18.2-15.3H119.9a6,6,0,0,1,0-12h63.9a6,6,0,0,1,0,12Z" style="fill: #fff"/>
    </g>
  </g>
</svg>
